{"asset":{"version":"2.0","generator":"THREE.GLTFExporter r175"},"scenes":[{"name":"AuxScene","nodes":[8]}],"scene":0,"nodes":[{"mesh":0},{"mesh":1},{"mesh":2},{"mesh":3},{"matrix":[0.17459426695964134,0,-0.17459426695964136,0,0,-0.24691358024691357,0,0,0.17459426695964136,0,0.17459426695964134,0,0,0,0,1],"children":[0,1,2,3]},{"children":[4]},{"matrix":[1,0,0,0,0,1,0,0,0,0,1,0,-34.44250082279675,45.308082721851484,33.74412379658471,1],"children":[5]},{"children":[6]},{"children":[7]}],"bufferViews":[{"buffer":0,"byteOffset":0,"byteLength":27504,"target":34962,"byteStride":12},{"buffer":0,"byteOffset":27504,"byteLength":18336,"target":34962,"byteStride":8},{"buffer":0,"byteOffset":45840,"byteLength":27504,"target":34962,"byteStride":12},{"buffer":0,"byteOffset":73344,"byteLength":27504,"target":34962,"byteStride":12},{"buffer":0,"byteOffset":100848,"byteLength":18336,"target":34962,"byteStride":8},{"buffer":0,"byteOffset":119184,"byteLength":27504,"target":34962,"byteStride":12},{"buffer":0,"byteOffset":146688,"byteLength":27504,"target":34962,"byteStride":12},{"buffer":0,"byteOffset":174192,"byteLength":18336,"target":34962,"byteStride":8},{"buffer":0,"byteOffset":192528,"byteLength":27504,"target":34962,"byteStride":12},{"buffer":0,"byteOffset":220032,"byteLength":18288,"target":34962,"byteStride":12},{"buffer":0,"byteOffset":238320,"byteLength":12192,"target":34962,"byteStride":8},{"buffer":0,"byteOffset":250512,"byteLength":18288,"target":34962,"byteStride":12}],"buffers":[{"byteLength":268800,"uri":"data:application/octet-stream;base64,"}],"accessors":[{"bufferView":0,"componentType":5126,"count":2292,"max":[357.74066162109375,346.0978088378906,13.100000381469727],"min":[32.792083740234375,26.4670352935791,-0.6000000238418579],"type":"VEC3"},{"bufferView":1,"componentType":5126,"count":2292,"max":[354.8399353027344,343.1942443847656],"min":[35.70384979248047,-12.100000381469727],"type":"VEC2"},{"bufferView":2,"componentType":5126,"count":2292,"max":[0.9998624920845032,0.9995072484016418,1],"min":[-0.9985021352767944,-0.9998369216918945,-1],"type":"VEC3"},{"bufferView":3,"componentType":5126,"count":2292,"max":[357.74066162109375,346.0978088378906,13.100000381469727],"min":[32.792083740234375,26.4670352935791,-0.6000000238418579],"type":"VEC3"},{"bufferView":4,"componentType":5126,"count":2292,"max":[354.8399353027344,343.1942443847656],"min":[35.70384979248047,-12.100000381469727],"type":"VEC2"},{"bufferView":5,"componentType":5126,"count":2292,"max":[0.9998624920845032,0.9995072484016418,1],"min":[-0.9985021352767944,-0.9998369216918945,-1],"type":"VEC3"},{"bufferView":6,"componentType":5126,"count":2292,"max":[357.74066162109375,346.0978088378906,13.100000381469727],"min":[32.792083740234375,26.4670352935791,-0.6000000238418579],"type":"VEC3"},{"bufferView":7,"componentType":5126,"count":2292,"max":[354.8399353027344,343.1942443847656],"min":[35.70384979248047,-12.100000381469727],"type":"VEC2"},{"bufferView":8,"componentType":5126,"count":2292,"max":[0.9998624920845032,0.9995072484016418,1],"min":[-0.9985021352767944,-0.9998369216918945,-1],"type":"VEC3"},{"bufferView":9,"componentType":5126,"count":1524,"max":[297.0618896484375,38.917476654052734,13.100000381469727],"min":[234.44114685058594,20.898977279663086,-0.6000000238418579],"type":"VEC3"},{"bufferView":10,"componentType":5126,"count":1524,"max":[295.33575439453125,36.00510025024414],"min":[27.56267547607422,-12.100000381469727],"type":"VEC2"},{"bufferView":11,"componentType":5126,"count":1524,"max":[0.8905488848686218,0.9999997615814209,1],"min":[-0.9369994401931763,-0.9996979236602783,-1],"type":"VEC3"}],"materials":[{"pbrMetallicRoughness":{"baseColorFactor":[0.6375968739867731,0.6653872982754769,0.7083757798856457,1],"metallicFactor":0.06,"roughnessFactor":0.06},"doubleSided":true,"extensions":{"KHR_materials_transmission":{"transmissionFactor":1},"KHR_materials_volume":{"thicknessFactor":0,"attenuationColor":[1,1,1]},"KHR_materials_clearcoat":{"clearcoatFactor":0.18,"clearcoatRoughnessFactor":0}}}],"meshes":[{"primitives":[{"mode":4,"attributes":{"POSITION":0,"TEXCOORD_0":1,"NORMAL":2},"material":0}]},{"primitives":[{"mode":4,"attributes":{"POSITION":3,"TEXCOORD_0":4,"NORMAL":5},"material":0}]},{"primitives":[{"mode":4,"attributes":{"POSITION":6,"TEXCOORD_0":7,"NORMAL":8},"material":0}]},{"primitives":[{"mode":4,"attributes":{"POSITION":9,"TEXCOORD_0":10,"NORMAL":11},"material":0}]}],"extensionsUsed":["KHR_materials_transmission","KHR_materials_volume","KHR_materials_clearcoat"]}