<svg width="405" height="369" viewBox="0 0 405 369" fill="none" xmlns="http://www.w3.org/2000/svg">
<g filter="url(#filter0_b_492_2681)">
<path d="M96.0664 327.185C59.6479 299.144 17.4458 222.399 43.7449 167.408C77.9941 102.452 192.046 20.5594 300.68 29.3704C319.312 30.8816 350.95 38.6741 354.352 108.153C356.387 147.652 353.799 213.358 316.636 259.912C306.335 272.816 275.923 305.417 197.876 335.046C177.333 341.187 129.923 353.254 96.0664 327.185Z" fill="#686868" fill-opacity="0.1"/>
<path d="M96.0664 327.185C59.6479 299.144 17.4458 222.399 43.7449 167.408C77.9941 102.452 192.046 20.5594 300.68 29.3704C319.312 30.8816 350.95 38.6741 354.352 108.153C356.387 147.652 353.799 213.358 316.636 259.912C306.335 272.816 275.923 305.417 197.876 335.046C177.333 341.187 129.923 353.254 96.0664 327.185Z" fill="url(#paint0_linear_492_2681)" fill-opacity="0.1"/>
<path d="M96.0664 327.185C59.6479 299.144 17.4458 222.399 43.7449 167.408C77.9941 102.452 192.046 20.5594 300.68 29.3704C319.312 30.8816 350.95 38.6741 354.352 108.153C356.387 147.652 353.799 213.358 316.636 259.912C306.335 272.816 275.923 305.417 197.876 335.046C177.333 341.187 129.923 353.254 96.0664 327.185Z" stroke="url(#paint1_radial_492_2681)" stroke-width="3.89677"/>
</g>
<g filter="url(#filter1_f_492_2681)">
<path d="M293.797 30.8755C294.048 34.4849 279.956 31.7728 265.963 32.7444C251.97 33.716 237.95 38.2517 237.698 34.6423C237.447 31.0328 251.379 24.9011 265.371 23.9296C279.364 22.958 293.545 27.266 293.797 30.8755Z" fill="url(#paint2_linear_492_2681)"/>
</g>
<defs>
<filter id="filter0_b_492_2681" x="-56.8667" y="-63.6929" width="504.13" height="499.346" filterUnits="userSpaceOnUse" color-interpolation-filters="sRGB">
<feFlood flood-opacity="0" result="BackgroundImageFix"/>
<feGaussianBlur in="BackgroundImageFix" stdDeviation="45.23"/>
<feComposite in2="SourceAlpha" operator="in" result="effect1_backgroundBlur_492_2681"/>
<feBlend mode="normal" in="SourceGraphic" in2="effect1_backgroundBlur_492_2681" result="shape"/>
</filter>
<filter id="filter1_f_492_2681" x="228.231" y="14.3268" width="75.0326" height="31.1524" filterUnits="userSpaceOnUse" color-interpolation-filters="sRGB">
<feFlood flood-opacity="0" result="BackgroundImageFix"/>
<feBlend mode="normal" in="SourceGraphic" in2="BackgroundImageFix" result="shape"/>
<feGaussianBlur stdDeviation="4.73179" result="effect1_foregroundBlur_492_2681"/>
</filter>
<linearGradient id="paint0_linear_492_2681" x1="126.998" y1="329.334" x2="260.498" y2="29.3342" gradientUnits="userSpaceOnUse">
<stop stop-color="#1B1B1B" stop-opacity="0.6"/>
<stop offset="1" stop-color="white"/>
</linearGradient>
<radialGradient id="paint1_radial_492_2681" cx="0" cy="0" r="1" gradientUnits="userSpaceOnUse" gradientTransform="translate(139.227 217.032) rotate(-67.2975) scale(211.181 246.011)">
<stop/>
<stop offset="1" stop-color="#888888" stop-opacity="0.7"/>
</radialGradient>
<linearGradient id="paint2_linear_492_2681" x1="237.456" y1="31.0406" x2="293.555" y2="27.2738" gradientUnits="userSpaceOnUse">
<stop stop-color="#999999" stop-opacity="0.6"/>
<stop offset="0.511451" stop-color="white"/>
<stop offset="1" stop-color="#999999" stop-opacity="0.6"/>
</linearGradient>
</defs>
</svg>
